<?xml version="1.0" encoding="UTF-8" standalone="no"?>
<svg
   xmlns:dc="http://purl.org/dc/elements/1.1/"
   xmlns:cc="http://creativecommons.org/ns#"
   xmlns:rdf="http://www.w3.org/1999/02/22-rdf-syntax-ns#"
   xmlns:svg="http://www.w3.org/2000/svg"
   xmlns="http://www.w3.org/2000/svg"
   xmlns:sodipodi="http://sodipodi.sourceforge.net/DTD/sodipodi-0.dtd"
   xmlns:inkscape="http://www.inkscape.org/namespaces/inkscape"
   version="1.1"
   x="0px"
   y="0px"
   viewBox="0 0 100 125"
   style="enable-background:new 0 0 100 100;"
   xml:space="preserve"
   id="svg3757"
   sodipodi:docname="logga.svg"
   inkscape:version="0.92.4 (5da689c313, 2019-01-14)"
   inkscape:export-filename="C:\Users\Administrator\Downloads\Logga_miniversion.png"
   inkscape:export-xdpi="96"
   inkscape:export-ydpi="96"><metadata
     id="metadata3763"><rdf:RDF><cc:Work
         rdf:about=""><dc:format>image/svg+xml</dc:format><dc:type
           rdf:resource="http://purl.org/dc/dcmitype/StillImage" /><dc:title></dc:title></cc:Work></rdf:RDF></metadata><defs
     id="defs3761" /><sodipodi:namedview
     pagecolor="#ffffff"
     bordercolor="#666666"
     borderopacity="1"
     objecttolerance="10"
     gridtolerance="10"
     guidetolerance="10"
     inkscape:pageopacity="0"
     inkscape:pageshadow="2"
     inkscape:window-width="1553"
     inkscape:window-height="877"
     id="namedview3759"
     showgrid="false"
     showguides="true"
     inkscape:zoom="4.5707382"
     inkscape:cx="64.843538"
     inkscape:cy="55.071335"
     inkscape:window-x="59"
     inkscape:window-y="67"
     inkscape:window-maximized="0"
     inkscape:current-layer="g3788" /><g
     id="g3788"
     transform="rotate(1.2356051,-357.21196,85.753978)"
     inkscape:export-xdpi="96"
     inkscape:export-ydpi="96"><g
   transform="translate(-3.7912126,-11.423745)"
   id="g3751"><circle
     id="circle3739"
     r="2.53"
     cy="38.529999"
     cx="58.014"
     style="fill:#0081bf;fill-opacity:1"
     inkscape:export-xdpi="96"
     inkscape:export-ydpi="96" /><circle
     id="circle3741"
     r="2.53"
     cy="38.529999"
     cx="41.986"
     style="fill:#0081bf;fill-opacity:1"
     inkscape:export-xdpi="96"
     inkscape:export-ydpi="96" /><path
     inkscape:connector-curvature="0"
     id="path3743"
     d="m 60.936,53.323 c -0.003,-0.07 -0.011,-0.138 -0.021,-0.207 -0.009,-0.063 -0.019,-0.126 -0.034,-0.187 -0.016,-0.065 -0.037,-0.127 -0.059,-0.19 -0.021,-0.061 -0.043,-0.12 -0.07,-0.178 -0.027,-0.058 -0.059,-0.113 -0.092,-0.169 -0.033,-0.055 -0.065,-0.11 -0.103,-0.162 -0.038,-0.052 -0.079,-0.1 -0.122,-0.148 -0.042,-0.048 -0.084,-0.094 -0.13,-0.138 C 60.258,51.9 60.208,51.861 60.156,51.821 60.105,51.782 60.054,51.744 60,51.709 c -0.053,-0.033 -0.109,-0.062 -0.166,-0.09 -0.061,-0.03 -0.121,-0.06 -0.185,-0.084 -0.057,-0.021 -0.115,-0.038 -0.174,-0.054 -0.07,-0.019 -0.14,-0.037 -0.213,-0.048 C 59.237,51.429 59.215,51.42 59.189,51.416 59.146,51.41 59.104,51.415 59.062,51.412 59.022,51.41 58.984,51.4 58.943,51.4 c -0.023,0 -0.044,0.006 -0.066,0.007 -0.084,0.002 -0.166,0.012 -0.247,0.025 -0.047,0.008 -0.094,0.014 -0.14,0.025 -0.082,0.019 -0.161,0.045 -0.239,0.074 -0.044,0.017 -0.089,0.032 -0.132,0.052 -0.072,0.033 -0.14,0.072 -0.208,0.113 -0.044,0.026 -0.087,0.052 -0.129,0.082 -0.06,0.043 -0.115,0.091 -0.171,0.141 -0.042,0.037 -0.083,0.074 -0.121,0.115 -0.047,0.05 -0.09,0.104 -0.132,0.16 -0.037,0.049 -0.073,0.097 -0.106,0.148 -0.034,0.055 -0.063,0.112 -0.092,0.17 -0.03,0.06 -0.059,0.12 -0.083,0.184 -0.021,0.057 -0.038,0.115 -0.054,0.174 -0.019,0.07 -0.037,0.14 -0.048,0.213 -0.004,0.025 -0.013,0.047 -0.017,0.073 -0.228,1.828 -1.443,3.302 -2.959,3.585 C 53.23,56.884 52.523,56.68 52,56.438 V 54.47 c 0.823,-0.756 1.575,-1.761 1.575,-2.751 0,-1.972 -1.603,-3.135 -3.575,-3.135 -1.972,0 -3.567,1.163 -3.567,3.135 0,0.988 0.747,1.992 1.567,2.747 v 1.972 c -0.521,0.241 -1.226,0.445 -2.002,0.303 -1.515,-0.283 -2.73,-1.757 -2.958,-3.585 -0.003,-0.025 -0.013,-0.048 -0.017,-0.073 -0.012,-0.072 -0.029,-0.141 -0.048,-0.21 -0.017,-0.061 -0.034,-0.121 -0.056,-0.179 -0.023,-0.06 -0.05,-0.117 -0.078,-0.174 C 42.81,52.457 42.779,52.396 42.742,52.337 42.713,52.291 42.681,52.249 42.649,52.206 42.603,52.144 42.555,52.084 42.503,52.029 42.47,51.994 42.435,51.963 42.4,51.931 42.34,51.876 42.279,51.824 42.213,51.776 42.176,51.75 42.137,51.727 42.098,51.703 42.028,51.66 41.957,51.62 41.881,51.585 41.838,51.565 41.793,51.549 41.748,51.533 41.672,51.505 41.596,51.48 41.517,51.461 41.465,51.449 41.413,51.441 41.359,51.433 41.283,51.422 41.208,51.412 41.13,51.41 c -0.025,-10e-4 -0.049,-0.008 -0.074,-0.008 -0.043,0 -0.082,0.01 -0.124,0.013 -0.041,0.003 -0.081,-0.002 -0.122,0.003 -0.025,0.003 -0.048,0.013 -0.073,0.017 -0.073,0.012 -0.143,0.029 -0.213,0.048 -0.059,0.016 -0.117,0.033 -0.174,0.054 -0.064,0.024 -0.125,0.053 -0.185,0.084 -0.057,0.028 -0.113,0.057 -0.166,0.09 -0.055,0.034 -0.105,0.072 -0.156,0.112 -0.051,0.039 -0.102,0.079 -0.149,0.123 -0.046,0.043 -0.088,0.09 -0.13,0.138 -0.043,0.048 -0.084,0.096 -0.122,0.148 -0.038,0.052 -0.07,0.106 -0.103,0.162 -0.033,0.055 -0.064,0.11 -0.092,0.169 -0.027,0.058 -0.048,0.118 -0.07,0.178 -0.022,0.063 -0.043,0.125 -0.059,0.19 -0.015,0.061 -0.024,0.124 -0.034,0.187 -0.01,0.068 -0.018,0.136 -0.021,0.207 -0.001,0.027 -0.008,0.052 -0.008,0.079 0,0.052 0.012,0.111 0.014,0.164 0.002,0.028 -0.002,0.054 0.002,0.082 0.002,0.015 0.007,0.028 0.008,0.043 0.256,4.52 6.503,12.358 10.92,12.358 4.417,0 10.665,-7.838 10.92,-12.358 0.002,-0.015 0.007,-0.028 0.008,-0.043 0.003,-0.028 0,-0.055 0.002,-0.082 0.002,-0.053 0.014,-0.112 0.014,-0.164 0.001,-0.029 -0.006,-0.054 -0.007,-0.081 z m -13.212,7.356 c 0.888,-0.153 1.664,-0.447 2.276,-0.763 0.612,0.316 1.388,0.611 2.276,0.763 -0.909,0.825 -1.746,1.37 -2.276,1.37 -0.53,0 -1.367,-0.545 -2.276,-1.37 z"
     style="fill:#0081bf;fill-opacity:1"
     inkscape:export-xdpi="96"
     inkscape:export-ydpi="96" /><path
     inkscape:connector-curvature="0"
     id="path3745"
     d="m 38.014,18.188 c -0.241,-1.077 -1.309,-1.758 -2.389,-1.514 -1.078,0.241 -1.756,1.311 -1.514,2.389 l 0.813,3.625 c 0.208,0.931 1.034,1.563 1.949,1.563 0.145,0 0.292,-0.016 0.439,-0.049 1.078,-0.241 1.756,-1.311 1.514,-2.389 z"
     style="fill:#0081bf;fill-opacity:1"
     inkscape:export-xdpi="96"
     inkscape:export-ydpi="96" /><path
     inkscape:connector-curvature="0"
     id="path3747"
     d="M 76.792,39.693 75.46,35.208 c 0.516,-1.791 1.074,-4.621 0.377,-6.949 -0.374,-1.247 -0.671,-1.81 -0.968,-2.321 C 74.701,25.648 74.6,25.473 74.407,24.521 74.176,23.373 74.095,22.698 74.011,21.983 73.919,21.203 73.824,20.395 73.547,19.021 73.275,17.673 72.92,16.882 72.608,16.184 72.329,15.559 72.087,15.02 71.852,13.966 71.556,12.637 71.632,11.368 71.701,10.248 71.802,8.585 71.915,6.7 70.317,5.584 68.196,4.102 65.457,5.76 63.458,6.968 c -1.247,0.753 -3.711,2.526 -6.199,5.942 -1.375,1.887 -2.517,3.948 -3.406,6.146 h -3.849 c -10e-4,0 -10e-4,0 -0.002,0 -0.001,0 -0.001,0 -0.002,0 H 46.151 C 45.262,16.86 44.121,14.797 42.745,12.91 40.259,9.499 37.795,7.722 36.547,6.968 34.547,5.759 31.808,4.1 29.687,5.584 28.088,6.7 28.203,8.586 28.303,10.249 c 0.068,1.119 0.146,2.389 -0.15,3.716 -0.234,1.053 -0.477,1.593 -0.756,2.217 -0.313,0.699 -0.668,1.491 -0.939,2.839 -0.278,1.375 -0.373,2.183 -0.466,2.965 -0.084,0.714 -0.163,1.388 -0.395,2.535 -0.193,0.953 -0.294,1.128 -0.462,1.418 -0.297,0.512 -0.594,1.073 -0.968,2.32 -0.697,2.328 -0.139,5.158 0.377,6.949 l -1.331,4.485 -3.315,8.136 c -0.275,0.676 -0.16,1.448 0.299,2.015 l 3.427,4.224 -2.077,9.557 c -0.159,0.731 0.104,1.49 0.681,1.967 l 3.854,3.184 0.392,7.48 c 0.033,0.641 0.372,1.226 0.91,1.574 l 4.71,3.049 3.05,5.929 c 0.234,0.455 0.634,0.803 1.117,0.973 l 5.631,1.974 5.803,5.283 c 0.384,0.35 0.865,0.521 1.346,0.521 0.335,0 0.664,-0.093 0.963,-0.258 0.299,0.165 0.629,0.258 0.963,0.258 0.48,0 0.962,-0.172 1.346,-0.521 l 5.802,-5.283 5.631,-1.974 c 0.483,-0.17 0.883,-0.518 1.117,-0.973 l 3.051,-5.929 4.709,-3.049 c 0.538,-0.349 0.877,-0.934 0.91,-1.574 l 0.392,-7.48 3.854,-3.184 c 0.577,-0.477 0.84,-1.235 0.681,-1.967 l -2.077,-9.557 3.427,-4.224 c 0.459,-0.566 0.574,-1.339 0.299,-2.015 z m -4.523,14.286 2.022,9.305 -3.593,2.967 c -0.432,0.356 -0.694,0.878 -0.724,1.438 l -0.385,7.339 -4.299,2.784 C 64.998,78 64.76,78.264 64.6,78.574 l -2.931,5.693 -5.263,1.845 c -0.254,0.089 -0.487,0.229 -0.686,0.409 l -5.718,5.208 -5.719,-5.208 c -0.198,-0.181 -0.432,-0.32 -0.686,-0.409 l -5.263,-1.845 -2.93,-5.693 C 35.244,78.263 35.006,78 34.713,77.81 l -4.3,-2.784 -0.385,-7.339 c -0.029,-0.56 -0.292,-1.081 -0.724,-1.438 l -3.593,-2.967 2.022,-9.305 c 0.129,-0.594 -0.019,-1.213 -0.4,-1.685 l -3.286,-4.051 2.906,-7.132 c 0.024,-0.062 0.046,-0.123 0.064,-0.187 l 1.529,-5.155 c 0.115,-0.385 0.11,-0.796 -0.013,-1.179 -0.522,-1.63 -0.938,-3.848 -0.537,-5.183 0.27,-0.9 0.429,-1.175 0.597,-1.465 0.351,-0.605 0.621,-1.147 0.921,-2.63 0.265,-1.31 0.357,-2.098 0.447,-2.86 0.087,-0.734 0.168,-1.427 0.414,-2.641 0.184,-0.912 0.397,-1.391 0.669,-1.996 0.322,-0.719 0.687,-1.533 1.01,-2.981 0.418,-1.878 0.314,-3.583 0.239,-4.828 -0.016,-0.257 -0.034,-0.559 -0.043,-0.83 0.703,0.295 1.68,0.885 2.225,1.214 0.99,0.6 2.961,2.029 5.035,4.875 1.42,1.95 2.554,4.12 3.368,6.451 0.28,0.802 1.037,1.34 1.888,1.34 H 48 v 1.068 c 0,1.104 0.896,2 2,2 1.104,0 2,-0.896 2,-2 v -1.068 h 3.235 c 0.85,0 1.607,-0.537 1.888,-1.34 0.815,-2.333 1.949,-4.503 3.368,-6.451 2.076,-2.849 4.046,-4.276 5.036,-4.875 0.505,-0.305 1.507,-0.911 2.224,-1.212 -0.009,0.271 -0.027,0.571 -0.043,0.828 -0.075,1.245 -0.178,2.95 0.24,4.828 0.322,1.449 0.688,2.265 1.01,2.983 0.271,0.605 0.485,1.084 0.669,1.994 0.245,1.212 0.326,1.904 0.412,2.638 0.09,0.763 0.183,1.552 0.448,2.863 0.299,1.481 0.57,2.024 0.921,2.63 0.168,0.29 0.327,0.563 0.597,1.464 0.4,1.336 -0.015,3.554 -0.537,5.184 -0.123,0.383 -0.128,0.794 -0.013,1.18 l 1.53,5.155 c 0.019,0.063 0.04,0.124 0.064,0.186 l 2.905,7.132 -3.286,4.051 c -0.381,0.474 -0.528,1.093 -0.399,1.687 z"
     style="fill:#002b40;fill-opacity:1"
     inkscape:export-xdpi="96"
     inkscape:export-ydpi="96" /><path
     inkscape:connector-curvature="0"
     id="path3749"
     d="m 64.379,16.674 c -1.08,-0.243 -2.148,0.437 -2.389,1.514 l -0.813,3.625 c -0.242,1.078 0.436,2.147 1.514,2.389 0.147,0.033 0.295,0.049 0.439,0.049 0.915,0 1.741,-0.632 1.949,-1.563 l 0.813,-3.625 c 0.243,-1.079 -0.435,-2.148 -1.513,-2.389 z"
     style="fill:#0081bf;fill-opacity:1"
     inkscape:export-xdpi="96"
     inkscape:export-ydpi="96" /></g><text
   id="text3767"
   y="108.08236"
   x="-19.718992"
   style="font-style:normal;font-weight:normal;font-size:18.66666603px;line-height:1.25;font-family:sans-serif;letter-spacing:0px;word-spacing:0px;fill:#0081bf;fill-opacity:1;stroke:none"
   xml:space="preserve"
   inkscape:export-xdpi="96"
   inkscape:export-ydpi="96"><tspan
     style="font-style:normal;font-variant:normal;font-weight:normal;font-stretch:normal;font-size:24px;font-family:'Asap SemiBold';-inkscape-font-specification:'Asap SemiBold, ';fill:#0081bf;fill-opacity:1"
     y="108.08236"
     x="-19.718992"
     id="tspan3765"
     sodipodi:role="line">Yoshis Kennel</tspan></text>

</g><path
     style="fill:#000080;stroke-width:0.21878304"
     d=""
     id="path21"
     inkscape:connector-curvature="0" /></svg>